<?xml version="1.0" encoding="utf-8"?>
<!-- Generator: Adobe Illustrator 16.0.0, SVG Export Plug-In . SVG Version: 6.00 Build 0)  -->
<!DOCTYPE svg PUBLIC "-//W3C//DTD SVG 1.1//EN" "http://www.w3.org/Graphics/SVG/1.1/DTD/svg11.dtd">
<svg version="1.1" id="Layer_1" xmlns="http://www.w3.org/2000/svg" xmlns:xlink="http://www.w3.org/1999/xlink" x="0px" y="0px"
	 width="616.667px" height="875px" viewBox="0 0 616.667 875" enable-background="new 0 0 616.667 875" xml:space="preserve">
<g>
	<path d="M587.909,222.816H32.838c-6.61-0.2-12.48-2.87-16.78-7.16c-4.3-4.3-7.03-10.23-7.36-16.97
		c0.66-11.84,10.92-22.09,24.14-22.28h425.58l23.95-50.04c-13.53-12.54-22.09-30.41-22.55-50.2c0.89-38.3,31.87-69.29,70.54-68.69
		c37.79-0.6,68.8,30.39,68.689,68.69c0.11,38.16-30.899,69.15-68.689,68.68c-1.46,0.02-2.9-0.01-4.33-0.08l-15.141,31.64h77.021
		c12.3,0.18,22.3,9.79,22.3,21.14c0,0.38-0.01,0.76-0.03,1.14C610.878,212.157,600.619,222.417,587.909,222.816z"/>
	<path d="M530.354,76.164L530.354,76.164z"/>
	<polygon points="319.138,494.046 312.478,481.296 312.558,481.136 	"/>
	<polygon points="325.458,563.817 325.168,564.417 297.639,512.296 297.639,512.287 298.199,511.126 	"/>
	<polygon points="339.848,533.747 339.619,534.247 319.138,494.046 	"/>
	<path d="M405.97,339.777L405.97,339.777z"/>
	<path fill="#FFFFFF" d="M313.15,237.672L313.15,237.672z"/>
	<path d="M325.458,563.817l-27.26-52.69l-0.56,1.16v0.01l27.53,52.12l0.98,1.85l0.5-0.14L325.458,563.817z M312.558,481.136
		l-0.08,0.16l6.66,12.75L312.558,481.136z M311.289,404.747c0.55-27.66-19.91-37.25-53.82-37.13h-42.71v72.41h38.99
		C302.068,440.157,311.838,422.247,311.289,404.747z M319.138,494.046l20.48,40.2l0.229-0.5L319.138,494.046z"/>
	<path d="M578.619,252.517h-536.5c119.69,202.25,117.96,323.06,5.57,540.22h527.22C461.749,575.577,459.999,454.766,578.619,252.517
		z M417.109,707.346l-61.261-98.39l-63.12,98.39h-29.7l74.26-120.66l-10.64-20.56l-0.5,0.14l-0.98-1.85l-27.53-52.12v-0.01
		l-23.46-44.42h-61.27v96.54h-25.99v-230.2h64.97c73.72,0.17,91.28,37.94,90.959,64.97c0.32,18.27-9.149,52.971-40.83,61.271
		l10.54,20.689l6.58,12.91l20.71,39.7l16,30.66l55.7-87.26h29.7l-68.69,109.539l77.971,120.66H417.109z"/>
	<path d="M309.443,198.686L309.443,198.686z"/>
	<path d="M610.208,847.777c0,11.84-10,21.439-22.3,21.08H32.838c-13.22,0.369-23.48-9.891-24.14-22.28
		c0.61-11.91,9.38-21.55,21.11-22.28c0.48-0.03,0.96-0.05,1.44-0.05c0.52,0,1.05,0.01,1.59,0.05h555.07
		c0.979-0.07,1.939-0.07,2.88,0c11.34,0.7,20.04,10.36,19.39,22.28C610.199,846.976,610.208,847.376,610.208,847.777z"/>
	<path d="M309.443,846.577L309.443,846.577z"/>
	<path fill="#FFFFFF" d="M31.249,824.247c0.52,0,1.05,0.01,1.59,0.05h-3.03C30.289,824.266,30.769,824.247,31.249,824.247z"/>
	<path fill="#FFFFFF" d="M590.789,824.296h-2.88C588.888,824.226,589.848,824.226,590.789,824.296z"/>
	<polygon fill="#FFFFFF" points="339.848,533.747 339.619,534.247 319.138,494.046 	"/>
	<path fill="#FFFFFF" d="M325.458,563.817l-27.26-52.69l-0.56,1.16v0.01l27.53,52.12l0.98,1.85l0.5-0.14L325.458,563.817z
		 M312.558,481.136l-0.08,0.16l6.66,12.75L312.558,481.136z M311.289,404.747c0.55-27.66-19.91-37.25-53.82-37.13h-42.71v72.41
		h38.99C302.068,440.157,311.838,422.247,311.289,404.747z"/>
	<path d="M253.749,440.027h-38.99v-72.41h42.71c33.91-0.12,54.37,9.47,53.82,37.13C311.838,422.247,302.068,440.157,253.749,440.027
		z"/>
</g>
</svg>
